<svg xmlns="http://www.w3.org/2000/svg" viewBox="0 0 62.51 19.84"><defs><style>.cls-1{fill:#33af5b;}</style></defs><g id="Layer_2" data-name="Layer 2"><g id="Layer_1-2" data-name="Layer 1"><path class="cls-1" d="M1.28,18V10.68H0v-1H1.28V7.17H2.45V9.71H4.38v1H2.45v7a.88.88,0,0,0,1,1,2.16,2.16,0,0,0,.9-.19v1a2,2,0,0,1-1.15.29A1.68,1.68,0,0,1,1.28,18Z"/><path class="cls-1" d="M4.68,14.66A4.87,4.87,0,0,1,9.6,9.52c2.52,0,5.06,1.83,4.74,5.58H5.79a3.88,3.88,0,0,0,4.07,3.71A4.12,4.12,0,0,0,13,17.47l.61.63a5,5,0,0,1-3.9,1.74A4.91,4.91,0,0,1,4.68,14.66Zm8.61-.5A3.56,3.56,0,0,0,9.6,10.55a3.75,3.75,0,0,0-3.81,3.61Z"/><path class="cls-1" d="M15.17,14.66a4.87,4.87,0,0,1,4.91-5.14c2.53,0,5.07,1.83,4.75,5.58H16.28a3.88,3.88,0,0,0,4.07,3.71,4.12,4.12,0,0,0,3.16-1.34l.61.63a5,5,0,0,1-3.9,1.74A4.91,4.91,0,0,1,15.17,14.66Zm8.6-.5a3.55,3.55,0,0,0-3.69-3.61,3.75,3.75,0,0,0-3.8,3.61Z"/><path class="cls-1" d="M27.14,17.24V11.41H25.76V9.71h1.38V7.17h2.12V9.71h2v1.7h-2v5.45a1,1,0,0,0,1.09,1,2.78,2.78,0,0,0,.92-.17v1.66a2.54,2.54,0,0,1-1.55.41A2.3,2.3,0,0,1,27.14,17.24Z"/><path class="cls-1" d="M32.61,6.08h2.1V8h-2.1Zm0,3.63h2.1v9.94h-2.1Z"/><path class="cls-1" d="M42.87,14c0-1.6-.78-2.52-2.1-2.52s-2.24.92-2.24,2.52v5.7h-2.1V9.71h2.1v1.41a3.24,3.24,0,0,1,2.95-1.6,3.18,3.18,0,0,1,3,1.81,3.61,3.61,0,0,1,3.33-1.81c2.08,0,3.61,1.32,3.61,4.32v5.81H49.32V14c0-1.6-.79-2.52-2.11-2.52S45,12.35,45,14v5.7H42.87Z"/><path class="cls-1" d="M52.66,14.68a4.91,4.91,0,0,1,5-5.16c2.53,0,5.28,1.79,4.8,6h-7.8A3.17,3.17,0,0,0,58,18.08a3.9,3.9,0,0,0,2.75-1l1,1a5,5,0,0,1-4,1.76A5,5,0,0,1,52.66,14.68Zm7.92-.77a2.76,2.76,0,0,0-2.91-2.6,3,3,0,0,0-3,2.6Z"/><rect class="cls-1" x="48.43" y="4.21" width="0.71" height="3.26"/><rect class="cls-1" x="50.25" y="4.94" width="0.71" height="4.36" transform="translate(57.72 -43.49) rotate(90)"/><path class="cls-1" d="M57.31,8h-.78A7.21,7.21,0,0,0,42.11,8h-.78a8,8,0,0,1,16,0Z"/><polygon class="cls-1" points="50.94 4.13 48.42 3.17 48.42 5.1 50.94 4.13"/></g></g></svg>